<svg xmlns="http://www.w3.org/2000/svg" viewBox="0 0 512 512">
<path d="M0,0 L197,0 L202,5 L203,11 L232,11 L255,14 L280,20 L303,28 L330,41 L349,53 L365,65 L379,77 L392,90 L401,101 L404,105 L418,106 L423,109 L426,115 L427,140 L438,163 L448,193 L453,217 L455,234 L455,278 L452,301 L446,326 L438,349 L427,372 L426,446 L423,452 L418,455 L383,455 L382,465 L378,477 L372,487 L363,497 L352,505 L341,510 L333,512 L310,512 L297,508 L286,502 L277,494 L269,495 L249,499 L232,501 L188,501 L165,498 L140,492 L115,483 L90,471 L71,459 L55,447 L40,434 L28,422 L19,411 L9,398 L-2,381 L-15,356 L-24,332 L-29,315 L-33,295 L-35,278 L-35,234 L-32,211 L-26,186 L-18,163 L-7,140 L-6,8 L-3,2 Z " fill="#99E4FA" transform="translate(46,0)"/>
<path d="M0,0 L193,0 L198,3 L201,9 L202,34 L213,57 L223,87 L228,111 L230,128 L230,172 L227,195 L221,220 L213,243 L202,266 L201,340 L198,346 L193,349 L158,349 L156,331 L151,318 L145,308 L136,298 L125,291 L110,285 L103,284 L88,284 L73,288 L61,295 L51,304 L44,313 L38,326 L36,335 L35,349 L1,349 L-5,346 L-8,340 L-8,8 L-4,2 Z " fill="#FCD003" transform="translate(271,106)"/>
<path d="M0,0 L197,0 L202,5 L203,11 L202,342 L197,347 L195,348 L160,348 L157,333 L149,317 L141,307 L129,298 L114,292 L110,291 L87,291 L74,295 L62,302 L52,311 L45,322 L40,334 L37,348 L2,348 L-4,344 L-5,342 L-6,139 L-6,8 L-3,2 Z " fill="#FD5694" transform="translate(46,0)"/>
<path d="M0,0 L1,0 L2,203 L6,207 L8,208 L43,209 L45,225 L49,237 L55,248 L64,258 L78,267 L89,271 L93,272 L115,272 L122,270 L128,270 L144,278 L161,285 L178,289 L188,291 L193,292 L223,294 L224,307 L226,313 L232,315 L266,316 L266,302 L269,291 L276,277 L285,267 L293,260 L307,253 L319,250 L334,250 L344,252 L360,259 L370,267 L378,276 L386,292 L389,303 L389,321 L385,336 L379,347 L368,359 L358,366 L347,371 L339,373 L316,373 L303,369 L292,363 L283,355 L275,356 L255,360 L238,362 L194,362 L171,359 L146,353 L121,344 L96,332 L77,320 L61,308 L46,295 L34,283 L25,272 L15,259 L4,242 L-9,217 L-18,193 L-23,176 L-27,156 L-29,139 L-29,95 L-26,72 L-20,47 L-12,24 L-1,1 Z " fill="#99E5FB" transform="translate(40,139)"/>
<path d="M0,0 L44,0 L39,5 L38,7 L37,47 L35,48 L35,76 L37,77 L37,104 L35,105 L35,118 L37,119 L37,146 L35,148 L35,160 L37,162 L37,189 L35,190 L35,204 L37,204 L37,231 L35,233 L35,245 L37,247 L38,342 L37,348 L2,348 L-4,344 L-5,342 L-6,139 L-6,8 L-3,2 Z " fill="#FC3581" transform="translate(46,0)"/>
<path d="M0,0 L15,0 L25,2 L41,9 L51,17 L59,26 L67,42 L70,53 L70,71 L66,86 L60,97 L49,109 L39,116 L28,121 L20,123 L-3,123 L-16,119 L-27,113 L-37,104 L-45,93 L-50,82 L-53,71 L-53,52 L-50,41 L-43,27 L-34,17 L-26,10 L-12,3 Z " fill="#AF66D9" transform="translate(359,389)"/>
<path d="M0,0 L23,0 L40,6 L53,15 L62,25 L70,41 L72,47 L73,55 L73,68 L70,81 L62,97 L52,108 L40,116 L27,121 L22,122 L0,122 L-13,118 L-25,111 L-36,101 L-43,90 L-48,78 L-50,70 L-50,52 L-46,38 L-39,25 L-29,14 L-15,5 L-4,1 Z " fill="#09CB8C" transform="translate(133,290)"/>
<path d="M0,0 L16,0 L32,1 L50,5 L61,8 L77,14 L93,22 L100,26 L100,27 L22,28 L17,31 L15,35 L14,354 L-2,354 L-16,353 L-29,351 L-45,347 L-61,341 L-78,333 L-84,330 L-81,328 L-71,323 L-61,315 L-53,305 L-47,292 L-44,279 L-43,269 L-8,268 L-3,265 L-1,261 Z " fill="#62DBFA" transform="translate(249,79)"/>
<path d="M0,0 L15,0 L24,2 L23,4 L14,8 L3,15 L-5,23 L-11,32 L-11,44 L11,45 L15,49 L14,54 L4,64 L-3,72 L-11,80 L-12,82 L-12,89 L-5,100 L-1,104 L-1,106 L3,108 L13,115 L25,120 L24,122 L20,123 L-3,123 L-16,119 L-27,113 L-37,104 L-45,93 L-50,82 L-53,71 L-53,52 L-50,41 L-43,27 L-34,17 L-26,10 L-12,3 Z " fill="#9857BC" transform="translate(359,389)"/>
<path d="M0,0 L3,3 L13,24 L23,54 L28,78 L30,95 L30,139 L27,162 L21,187 L13,210 L2,233 L0,234 Z " fill="#99E5F9" transform="translate(471,139)"/>
<path d="M0,0 L127,0 L128,1 L128,29 L127,30 L0,30 L-1,29 L-1,1 Z " fill="#FCCF02" transform="translate(81,47)"/>
<path d="M0,0 L126,0 L128,2 L128,29 L127,30 L0,30 L-1,29 L-1,1 Z " fill="#AF67D7" transform="translate(304,153)"/>
<path d="M0,0 L127,0 L128,1 L128,14 L127,15 L0,15 L-1,14 L-1,1 Z " fill="#FEFDFD" transform="translate(81,104)"/>
<path d="M0,0 L127,0 L128,1 L128,13 L127,15 L0,15 L-1,14 L-1,1 Z " fill="#FEFEFE" transform="translate(304,338)"/>
<path d="M0,0 L126,0 L128,1 L128,14 L127,15 L0,15 L-1,14 L-1,1 Z " fill="#FEFEFC" transform="translate(304,253)"/>
<path d="M0,0 L127,0 L128,1 L128,14 L127,15 L0,15 L-1,13 L-1,1 Z " fill="#FEFEFE" transform="translate(81,189)"/>
<path d="M0,0 L127,0 L128,1 L128,13 L126,15 L1,15 L-1,13 L-1,1 Z " fill="#FEFDF7" transform="translate(304,296)"/>
<path d="M0,0 L125,0 L127,2 L127,14 L126,15 L-1,15 L-2,14 L-2,2 Z " fill="#FEFAFC" transform="translate(82,231)"/>
<path d="M0,0 L127,0 L128,1 L128,13 L126,15 L1,15 L-1,13 L-1,1 Z " fill="#FEFEF9" transform="translate(304,211)"/>
<path d="M0,0 L127,0 L128,1 L128,13 L126,15 L1,15 L-1,13 L-1,1 Z " fill="#FEF9FB" transform="translate(81,147)"/>
<path d="M0,0 L23,0 L33,5 L39,14 L39,27 L35,34 L23,47 L41,48 L42,49 L42,62 L41,63 L1,63 L-3,59 L-3,52 L4,44 L12,36 L19,28 L24,22 L23,18 L21,16 L-1,15 L-2,14 L-2,2 Z " fill="#FDFCFE" transform="translate(349,419)"/>
<path d="M0,0 L20,0 L24,4 L24,61 L23,62 L10,62 L9,61 L9,15 L1,15 L-1,13 L-1,1 Z " fill="#FAFEFC" transform="translate(130,320)"/>
<path d="M0,0 L34,0 L33,2 L33,30 L0,30 L-1,29 L-1,1 Z " fill="#9857BC" transform="translate(304,153)"/>
<path d="M0,0 L1,0 L2,10 L24,11 L28,15 L27,20 L17,30 L10,38 L2,46 L0,54 L-2,50 L-5,41 L-6,35 L-6,21 L-3,7 Z " fill="#B068DA" transform="translate(346,423)"/>
</svg>
