<svg xmlns="http://www.w3.org/2000/svg" viewBox="0 0 512 512">
<path d="M0,0 L214,0 L219,5 L219,222 L327,222 L331,226 L331,444 L361,444 L363,446 L363,474 L362,475 L334,475 L334,506 L330,510 L303,510 L298,505 L298,475 L-84,475 L-84,505 L-89,510 L-116,510 L-120,506 L-120,475 L-148,475 L-149,474 L-149,446 L-147,444 L-117,444 L-117,226 L-113,222 L-5,222 L-5,4 Z " fill="#FBCC7D" transform="translate(149,1)"/>
<path d="M0,0 L508,0 L510,2 L510,30 L509,31 L481,31 L481,62 L477,66 L450,66 L445,61 L445,31 L63,31 L63,61 L58,66 L31,66 L27,62 L27,31 L-1,31 L-2,30 L-2,2 Z " fill="#8B9AA6" transform="translate(2,445)"/>
<path d="M0,0 L78,0 L81,2 L81,40 L79,42 L0,42 L-3,40 L-3,2 Z " fill="#D4A65C" transform="translate(217,146)"/>
<path d="M0,0 L80,0 L83,3 L83,38 L79,42 L58,42 L0,41 L-2,39 L-2,2 Z " fill="#D4A65C" transform="translate(104,368)"/>
<path d="M0,0 L80,0 L82,2 L82,40 L79,42 L58,42 L0,41 L-2,39 L-2,2 Z " fill="#D4A65C" transform="translate(328,368)"/>
<path d="M0,0 L54,0 L54,62 L51,65 L45,64 L30,56 L24,56 L6,65 L1,63 L0,60 Z " fill="#D2A55B" transform="translate(229,1)"/>
<path d="M0,0 L54,0 L54,62 L50,65 L44,63 L29,55 L23,56 L8,64 L1,63 L0,60 Z " fill="#D2A55B" transform="translate(117,223)"/>
<path d="M0,0 L54,0 L54,61 L50,65 L44,63 L29,55 L23,56 L8,64 L2,64 L0,60 Z " fill="#D2A45B" transform="translate(341,223)"/>
</svg>
