<svg xmlns="http://www.w3.org/2000/svg" viewBox="0 0 512 512">
<path d="M0,0 L36,0 L60,3 L85,9 L105,16 L121,23 L140,33 L159,46 L170,55 L182,66 L195,79 L206,93 L216,107 L226,124 L236,145 L244,168 L250,193 L253,217 L253,253 L250,277 L244,302 L236,325 L224,350 L214,366 L200,385 L186,400 L174,412 L160,423 L146,433 L129,443 L108,453 L88,460 L69,465 L54,468 L36,470 L0,470 L-24,467 L-49,461 L-72,453 L-97,441 L-113,431 L-132,417 L-147,403 L-159,391 L-170,377 L-180,363 L-190,346 L-200,325 L-210,295 L-215,271 L-217,253 L-217,217 L-214,193 L-208,168 L-200,145 L-188,120 L-178,104 L-170,93 L-162,83 L-151,71 L-138,58 L-124,47 L-110,37 L-93,27 L-72,17 L-49,9 L-29,4 L-10,1 Z " fill="#8AC24A" transform="translate(238,21)"/>
<path d="M0,0 L32,0 L50,3 L70,9 L86,16 L101,25 L114,35 L126,46 L135,57 L143,68 L152,84 L159,101 L163,116 L166,132 L166,164 L163,183 L155,207 L147,223 L137,239 L127,250 L120,258 L107,269 L88,281 L73,288 L54,294 L40,297 L32,298 L0,298 L-16,295 L-31,291 L-50,283 L-64,275 L-75,267 L-89,255 L-99,244 L-109,230 L-118,214 L-124,199 L-130,178 L-132,164 L-132,132 L-129,116 L-125,101 L-119,86 L-111,71 L-101,57 L-90,44 L-78,33 L-64,23 L-48,14 L-34,8 L-20,4 L-8,1 Z " fill="#0288D0" transform="translate(239,107)"/>
<path d="M0,0 L11,0 L21,3 L30,9 L37,19 L39,25 L39,36 L36,46 L30,55 L21,61 L11,64 L0,64 L-9,60 L-17,54 L-23,44 L-25,38 L-25,25 L-21,16 L-15,8 L-6,2 Z " fill="#EBEDED" transform="translate(249,224)"/>
<path d="M0,0 L13,0 L24,4 L33,12 L39,24 L39,39 L35,49 L27,58 L20,62 L13,64 L0,64 L-12,58 L-19,51 L-24,41 L-25,36 L-25,28 L-22,18 L-16,10 L-9,4 Z " fill="#EBEDED" transform="translate(174,224)"/>
<path d="M0,0 L13,0 L25,5 L33,13 L38,23 L39,28 L39,36 L35,48 L26,58 L16,63 L13,64 L0,64 L-10,60 L-19,52 L-25,40 L-25,24 L-19,12 L-10,4 Z " fill="#EBEDED" transform="translate(324,224)"/>
</svg>
